<?xml version="1.0" encoding="UTF-8" standalone="no"?>
<!-- Created with Inkscape (http://www.inkscape.org/) -->

<svg
   xmlns:dc="http://purl.org/dc/elements/1.1/"
   xmlns:cc="http://creativecommons.org/ns#"
   xmlns:rdf="http://www.w3.org/1999/02/22-rdf-syntax-ns#"
   xmlns:svg="http://www.w3.org/2000/svg"
   xmlns="http://www.w3.org/2000/svg"
   xmlns:sodipodi="http://sodipodi.sourceforge.net/DTD/sodipodi-0.dtd"
   xmlns:inkscape="http://www.inkscape.org/namespaces/inkscape"
   id="svg2"
   version="1.1"
   inkscape:version="0.91 r13725"
   xml:space="preserve"
   width="361.76874"
   height="287.66187"
   viewBox="0 0 361.76873 287.66187"
   sodipodi:docname="MCW.svg"><metadata
     id="metadata8"><rdf:RDF><cc:Work
         rdf:about=""><dc:format>image/svg+xml</dc:format><dc:type
           rdf:resource="http://purl.org/dc/dcmitype/StillImage" /><dc:title></dc:title></cc:Work></rdf:RDF></metadata><defs
     id="defs6" /><sodipodi:namedview
     pagecolor="#47d05f"
     bordercolor="#666666"
     borderopacity="1"
     objecttolerance="10"
     gridtolerance="10"
     guidetolerance="10"
     inkscape:pageopacity="0"
     inkscape:pageshadow="2"
     inkscape:window-width="1920"
     inkscape:window-height="1016"
     id="namedview4"
     showgrid="false"
     inkscape:zoom="1.6408117"
     inkscape:cx="51.762158"
     inkscape:cy="111.73649"
     inkscape:window-x="1920"
     inkscape:window-y="27"
     inkscape:window-maximized="1"
     inkscape:current-layer="g12"
     fit-margin-top="0"
     fit-margin-left="0"
     fit-margin-right="0"
     fit-margin-bottom="0" /><g
     id="g10"
     inkscape:groupmode="layer"
     inkscape:label="ink_ext_XXXXXX"
     transform="matrix(1.25,0,0,-1.25,0,287.66188)"><g
       id="g12"
       transform="scale(0.1,0.1)"><path
         d="m 689.102,1431.14 663.328,0 c 24.99,-17.45 60.72,-28.39 100.42,-28.39 39.7,0 75.43,10.94 100.42,28.39 l 663.33,0"
         style="fill:none;stroke:#ffffff;stroke-width:32.5;stroke-linecap:butt;stroke-linejoin:miter;stroke-miterlimit:4;stroke-dasharray:none;stroke-opacity:1"
         id="path14"
         inkscape:connector-curvature="0" /><path
         style="fill:#ffffff;fill-opacity:1;fill-rule:nonzero;stroke:none"
         d="m 165.94727,0.00390625 c -8.83172,0.11653938 -18.50645,3.41281245 -25.56836,6.03124995 -6.9525,2.5787502 -19.60938,6.4849998 -27.10938,5.7812498 L 89.414062,98.925781 c 5.275875,1.171249 24.234358,-0.289922 34.896488,-3.451172 17.88475,-5.30375 43.78086,-8.502009 57.47461,8.998051 13.69375,-17.50006 39.58765,-14.301801 57.47265,-8.998051 10.66375,3.16125 29.62149,4.622421 34.89649,3.451172 L 250.30078,11.816406 c -7.5,0.70375 -20.15687,-3.2024996 -27.10937,-5.7812498 -11.895,-4.41 -31.19625,-10.7433593 -41.40625,-0.5683593 -4.14731,-4.1335938 -9.79514,-5.54262812 -15.83789,-5.46289065 z m 6.62695,4.78515625 c 0.69427,0.0225 1.32359,0.2492188 1.78906,0.6992187 1.24,1.2000001 0.88516,3.3354688 0.0977,4.1992188 -0.78875,0.865 -1.66336,1.129922 -1.66211,2.857422 0.002,1.71375 1.64289,2.552578 3.55664,3.392578 1.26531,0.555194 1.97394,0.851292 3.25,1.404297 l -0.0293,-1.332031 -1.31445,-1.226563 a 0.46879688,0.46879688 0 0 1 -0.14844,-0.34375 l 0.008,-2.638672 a 0.46879688,0.46879688 0 0 1 0.6836,-0.416015 l 2.97461,1.548828 2.97265,-1.548828 a 0.46879688,0.46879688 0 0 1 0.68555,0.416015 l 0.006,2.638672 a 0.46879688,0.46879688 0 0 1 -0.14844,0.34375 l -1.31445,1.226563 -0.0684,3.195312 c 2.03705,0.876034 4.86179,2.099846 5.91992,2.560547 4.01125,1.745 7.18688,4.295391 7.26563,9.556641 0.0488,3.30625 -3.15235,8.306093 -8.3711,8.339843 -1.8154,0.01185 -3.6302,-0.0334 -5.24023,-0.541015 l -0.125,5.78125 c 2.48874,1.097423 4.96264,2.205777 6.86133,3.113281 3.14375,1.50125 4.82312,2.853516 4.92187,7.603516 0.0987,4.72 -4.295,8.4325 -8.28125,8.4375 -1.43683,0.0016 -2.87502,-0.47381 -3.89258,-0.888672 l -0.10351,4.824219 6.23437,2.755859 c 2.91625,1.38 4.16779,3.647578 4.19532,6.642578 0.0325,3.80875 -3.63485,6.691406 -6.7461,6.691406 -1.17048,0 -2.59555,-0.519918 -4.00195,-1.171875 l -0.084,3.904297 c 2.14033,0.965515 4.45963,2.014679 5.1543,2.320313 1.5525,0.68125 2.78539,2.318125 2.02539,3.609375 -0.69625,1.1825 -2.35375,1.16625 -3.875,0.53125 -0.57212,-0.239102 -2.0917,-0.920756 -3.41015,-1.507813 l -0.11133,5.181641 a 0.46879688,0.46879688 0 0 1 -0.44727,0.457031 l -0.002,0 a 0.46879688,0.46879688 0 0 1 -0.48828,-0.457031 L 181.1875,91.25 c -2.41303,-1.082992 -4.90816,-2.217719 -6.0957,-2.792969 -3.385,-1.64125 -4.33352,-4.177265 -4.32227,-5.728515 0.0263,-3.64625 2.60438,-6.06836 6.01563,-6.06836 1.58371,0 2.83655,0.431883 4.11328,1.044922 l -0.0977,-4.521484 -5.89062,-2.460938 c -3.645,-1.48375 -5.36352,-4.243515 -5.41602,-7.603515 -0.0875,-5.59875 4.79125,-7.708985 7.65625,-7.708985 1.50729,0 2.48195,0.144797 3.2793,0.40625 l -0.12305,-5.693359 c -0.74199,-0.31015 -1.5079,-0.62641 -2.32226,-0.9375 -7.65501,-2.92375 -10.05383,-6.378906 -10.08008,-10.285156 -0.0438,-6.64 5.10375,-9.0625 9.0625,-9.0625 1.11814,0 2.04715,0.126223 2.91406,0.410156 L 179.7441,23.84375 c -1.86182,-0.846963 -3.82673,-1.746145 -6.00586,-2.755859 -4.13375,-1.91625 -7.47289,-5.10461 -7.52539,-8.72461 -0.04,-2.7862493 1.13836,-4.4134374 2.81836,-6.0546872 1.05,-1.025 2.38585,-1.5570313 3.54297,-1.5195313 z m 27.95508,6.2226565 a 1.0941689,1.0941689 0 0 1 0.0449,0 1.0940452,1.0940452 0 0 1 0.0449,0.002 1.0938594,1.0938594 0 0 1 0.084,0.0059 c 8.16824,0.709288 16.57342,3.608972 22.86915,5.94336 4.81471,1.786025 12.4352,4.222687 19.03515,5.273437 a 1.0938594,1.0938594 0 0 1 -0.1582,2.175781 1.0938594,1.0938594 0 0 1 -0.18555,-0.01563 c -6.85754,-1.09175 -14.54284,-3.561337 -19.45312,-5.382812 -6.25175,-2.3181 -14.5152,-5.138741 -22.29688,-5.814453 a 1.0941689,1.0941689 0 0 1 0.0156,-2.1875 z m -37.55274,0.002 a 1.0938594,1.0938594 0 0 1 0.0801,2.185547 c -7.78175,0.675725 -16.04705,3.49634 -22.29883,5.814453 -4.91029,1.821475 -12.59557,4.291062 -19.45312,5.382812 a 1.0938594,1.0938594 0 0 1 -0.2168,0.01563 1.0938594,1.0938594 0 0 1 -0.12695,-2.175781 c 6.59995,-1.05075 14.22239,-3.487412 19.03711,-5.273437 6.29571,-2.334388 14.70089,-5.234072 22.86914,-5.94336 a 1.0938594,1.0938594 0 0 1 0.10937,-0.0059 z m -0.47461,13.078125 a 1.093876,1.093876 0 0 1 0.0332,2.1875 c -8.12894,0.126762 -16.88233,2.596369 -23.77344,4.878906 l -0.002,0 c -1.77452,0.585238 -3.77255,1.242375 -5.88086,1.90625 -4.40749,1.386513 -9.71697,2.693422 -14.65821,3.412109 a 1.0938594,1.0938594 0 0 1 -0.21679,0.01367 1.0938594,1.0938594 0 0 1 -0.0977,-2.177734 c 4.7871,-0.696288 10.01398,-1.980534 14.31641,-3.333984 2.09168,-0.658625 4.07857,-1.311735 5.85156,-1.896485 6.96619,-2.30735 15.88473,-4.857009 24.42773,-4.990234 z m 38.49414,0.002 a 1.0938594,1.0938594 0 0 1 0.0742,0 c 8.5432,0.133225 17.45916,2.680956 24.42774,4.988281 l 0.002,0 c 1.77106,0.584525 3.75948,1.23796 5.84961,1.896485 4.30374,1.353462 9.52982,2.637709 14.31641,3.333984 a 1.0938594,1.0938594 0 0 1 -0.12891,2.177734 l -0.002,0 a 1.0938594,1.0938594 0 0 1 -0.18555,-0.01367 c -4.94073,-0.718687 -10.24954,-2.025621 -14.6582,-3.412109 -2.10684,-0.663787 -4.10535,-1.3209 -5.87891,-1.90625 -6.8938,-2.2826 -15.64645,-4.75019 -23.77539,-4.876953 a 1.0939423,1.0939423 0 0 1 -0.041,-2.1875 z m -17.22265,1.560547 -0.14258,6.724609 c 1.15513,0.6749 2.3599,1.15625 3.7793,1.15625 1.38375,0 2.99375,-0.73875 2.96875,-2.65625 -0.0225,-1.78875 -0.28211,-2.663281 -4.34961,-4.269531 -0.56337,-0.222742 -1.34482,-0.556678 -2.25586,-0.955078 z m -6.88282,10.277344 c -1.6675,0 -2.73632,0.520156 -2.73632,2.628906 0,1.3025 0.26023,2.449844 3.33398,3.777344 0.76744,0.331906 1.78505,0.779675 2.67774,1.167968 l -0.13672,-6.320312 c -1.03059,-0.66923 -2.09226,-1.253906 -3.13868,-1.253906 z m -16.43945,1.185547 c 0.56068,0.0076 1.11855,0.02511 1.67578,0.05273 a 1.0940926,1.0940926 0 0 1 -0.10742,2.185547 c -8.47872,-0.420413 -17.71893,1.695484 -25.25195,3.943359 l -0.002,0 c -1.95331,0.579763 -4.05449,1.230925 -6.20703,1.898438 -4.53917,1.406437 -10.16034,2.657787 -15.42187,3.359375 a 1.0938594,1.0938594 0 0 1 -0.10938,0.01172 1.0938594,1.0938594 0 0 1 -0.17968,-2.179687 c 5.12514,-0.6834 10.66365,-1.91576 15.06445,-3.279297 2.15247,-0.667487 4.26073,-1.321025 6.23242,-1.90625 7.16176,-2.13702 15.89643,-4.200655 24.30664,-4.085937 z m 42.66797,0.002 c 8.41075,-0.1147 17.14577,1.948765 24.30664,4.085937 l -0.002,-0.002 c 1.973,0.58525 4.08003,1.238788 6.23242,1.90625 4.40222,1.363612 9.93889,2.597838 15.06445,3.28125 a 1.0938594,1.0938594 0 0 1 -0.10351,2.179687 l 0,-0.002 a 1.0938594,1.0938594 0 0 1 -0.1836,-0.0098 c -5.26193,-0.7016 -10.88356,-1.953 -15.42382,-3.359375 -2.15254,-0.667513 -4.25261,-1.3187 -6.20704,-1.898438 l -0.002,0 c -7.53172,-2.247862 -16.77127,-4.365725 -25.25,-3.945312 a 1.0938594,1.0938594 0 1 1 -0.10937,-2.183594 c 0.55726,-0.02763 1.11701,-0.04509 1.67773,-0.05273 z M 156.4707,49.966797 c 1.77243,0.0061 3.53594,0.0961 5.27735,0.287109 a 1.0938594,1.0938594 0 1 1 -0.23828,2.173828 c -8.83213,-0.968762 -18.55757,0.797016 -26.73047,3.009766 -2.13487,0.575575 -4.34062,1.224244 -6.53711,1.894531 -4.67196,1.427213 -10.60484,2.621753 -16.1875,3.306641 a 1.0938594,1.0938594 0 0 1 -0.10938,0.0098 1.0938594,1.0938594 0 0 1 -0.15625,-2.179688 c 5.46234,-0.670112 11.31242,-1.853228 15.81446,-3.228516 2.211,-0.674712 4.43781,-1.329637 6.60546,-1.914062 6.75139,-1.827831 14.5812,-3.385625 22.26172,-3.359375 z m 50.63086,0 c 7.68018,-0.02626 15.51031,1.531534 22.26172,3.359375 l 0.002,0 c 2.1659,0.5843 4.39273,1.239412 6.60352,1.914062 4.50125,1.375275 10.35212,2.558403 15.81445,3.228516 a 1.0938594,1.0938594 0 0 1 -0.082,2.179688 1.0938594,1.0938594 0 0 1 -0.18555,-0.0098 c -5.58266,-0.684888 -11.51624,-1.879416 -16.1875,-3.306641 -2.19621,-0.670187 -4.40151,-1.318943 -6.53515,-1.894531 -8.17288,-2.212738 -17.89964,-3.978516 -26.73047,-3.009766 a 1.0938594,1.0938594 0 1 1 -0.24023,-2.173828 c 1.74118,-0.191008 3.50694,-0.28105 5.27929,-0.287109 z m -23.8789,1.416015 -0.125,5.845704 c 1.14162,0.633035 2.31778,1.125 3.34765,1.125 1.5375,0 2.6836,-0.849375 2.6836,-2.421875 0,-1.90125 -1.35329,-2.604375 -2.86329,-3.203125 -0.66942,-0.265336 -1.7612,-0.770396 -3.04296,-1.345704 z m -6.82813,9.236329 c -1.3025,-0.015 -2.13672,0.83375 -2.13672,2.03125 0,1.22375 0.8161,1.819765 2.0586,2.447265 l 4.35351,1.923828 -0.10937,-5.042968 c -1.12718,-0.617357 -2.61064,-1.340932 -4.16602,-1.359375 z m -24.24805,2.05664 c 3.10439,-0.03215 6.19972,0.164071 9.2168,0.66211 a 1.0938594,1.0938594 0 1 1 -0.35742,2.158203 c -9.18518,-1.516238 -19.39669,-0.09827 -28.21289,2.080078 -2.31838,0.572162 -4.6282,1.21735 -6.86914,1.890625 -4.8024,1.444875 -11.04476,2.583453 -16.94922,3.251953 a 1.0938594,1.0938594 0 0 1 -0.10938,0.0098 1.0939964,1.0939964 0 0 1 -0.13867,-2.183594 c 5.79846,-0.656488 11.96283,-1.788741 16.56641,-3.173828 2.26899,-0.6817 4.61501,-1.33711 6.97656,-1.919922 6.17457,-1.525623 13.04731,-2.704665 19.87695,-2.775391 z m 59.27735,0 c 6.83004,0.07078 13.70312,1.249717 19.87695,2.775391 2.36156,0.582812 4.70756,1.238222 6.97656,1.919922 4.60439,1.3851 10.76748,2.51734 16.56446,3.173828 a 1.0938594,1.0938594 0 0 1 -0.0606,2.18164 1.0938594,1.0938594 0 0 1 -0.18555,-0.0078 c -5.90302,-0.668512 -12.14609,-1.807066 -16.94922,-3.251953 -2.24092,-0.673275 -4.55077,-1.318463 -6.86914,-1.890625 -8.81488,-2.178338 -19.02774,-3.596303 -28.21289,-2.080078 a 1.0938594,1.0938594 0 1 1 -0.35742,-2.158203 c 3.01714,-0.498051 6.11223,-0.694281 9.2168,-0.66211 z m -28.6836,11.316407 -0.0996,4.58789 c 1.29314,0.643939 2.41251,1.101563 3.25977,1.101563 1.18,0 2.08352,-0.54711 2.13477,-1.69336 0.05,-1.0925 -0.4436,-1.926875 -1.90235,-2.578125 l -3.39258,-1.417968 z m -33.95703,1.267578 c 4.11774,-0.03434 8.22832,0.308796 12.18946,1.166015 a 1.0940961,1.0940961 0 1 1 -0.46289,2.138672 c -12.06935,-2.6119 -25.98489,-0.201694 -36.90235,3.035156 -4.93361,1.463638 -11.48623,2.546857 -17.71289,3.199219 a 1.0938594,1.0938594 0 0 1 -0.10937,0.0078 1.0938594,1.0938594 0 0 1 -0.11914,-2.183594 c 6.13383,-0.642638 12.61145,-1.724719 17.31836,-3.121094 7.64208,-2.265759 16.73981,-4.166647 25.79882,-4.242187 z m 66.00196,0 c 9.05863,0.07554 18.15809,1.976436 25.80078,4.242187 4.70663,1.396375 11.18478,2.478456 17.31836,3.121094 a 1.0938594,1.0938594 0 0 1 -0.15235,2.181641 1.0938594,1.0938594 0 0 1 -0.0762,-0.0059 c -6.22641,-0.652362 -12.77953,-1.735581 -17.71289,-3.199219 -10.91836,-3.236862 -24.83428,-5.647043 -36.90234,-3.035156 a 1.0940961,1.0940961 0 0 1 -0.46289,-2.138672 c 3.96076,-0.857222 8.06993,-1.200353 12.1875,-1.166015 z m -37.8711,5.046875 c -1.0925,-0.01875 -2.13476,0.858906 -2.13476,1.847656 0,0.99 0.57383,1.460078 1.33008,1.798828 0.90857,0.407051 2.88779,1.298148 4.9707,2.238281 l -0.0859,-4.044922 c -1.77889,-0.918974 -3.35437,-1.827015 -4.08008,-1.839843 z"
         transform="matrix(8,0,0,-8,0,2301.3)"
         id="path16"
         inkscape:connector-curvature="0" /><path
         d="m 1358.45,2224.29 c 5.86,0 10.6,4.75 10.6,10.6 0,5.86 -4.74,10.61 -10.6,10.61 -5.86,0 -10.61,-4.75 -10.61,-10.61 0,-5.85 4.75,-10.6 10.61,-10.6"
         style="fill:#ffffff;fill-opacity:1;fill-rule:nonzero;stroke:none"
         id="path48"
         inkscape:connector-curvature="0" /><path
         d="m 858.441,1142.15 c 0,16.8 0,55.65 -5.25,69.82 -6.824,17.86 -30.144,17.86 -46.945,17.86 l 0,17.77 278.904,0 0,-81.08 -13.87,0 c -9.37,57.68 -44.83,59.71 -91.124,59.71 l -37.797,0 c -16.273,0 -13.652,1.57 -13.652,-21.53 l 0,-117.23 c 66.25,-2.9 76.863,26.66 80.173,66.37 l 15.68,0 c -0.53,-23.62 -1.05,-49.57 -2.1,-73.19 1.05,-21.53 1.57,-47.18 2.1,-68.71 l -15.68,0 c -7.01,52.63 -33.442,57.75 -80.173,57.75 l 0,-77.1 c 0,-15.75 0,-44.02 9.453,-56.629 13.649,-18.379 46.195,-19.422 67.19,-18.902 43.52,0.851 85.15,10.171 91.73,70.351 l 13.87,0 -1.13,-86.32 -281.988,0 0,13.871 c 10.344,0 23.043,8.879 27.156,19.66 5.254,14.168 3.453,51.219 3.453,68.019 l 0,139.51"
         style="fill:#ffffff;fill-opacity:1;fill-rule:nonzero;stroke:none"
         id="path50"
         inkscape:connector-curvature="0" /><path
         d="m 1715,662.16 c 0,16.801 0,55.66 -5.24,69.828 -6.83,17.852 -30.15,17.852 -46.95,17.852 l 0,17.769 278.91,0 0,-81.07 -13.88,0 c -9.36,57.68 -44.83,59.711 -91.12,59.711 l -37.79,0 c -16.28,0 -13.66,1.57 -13.66,-21.539 l 0,-117.223 c 66.25,-2.898 76.86,26.66 80.17,66.371 l 15.67,0 c -0.52,-23.621 -1.04,-49.578 -2.09,-73.199 1.05,-21.519 1.57,-47.172 2.09,-68.699 l -15.67,0 c -7.01,52.629 -33.44,57.75 -80.17,57.75 l 0,-77.109 c 0,-15.75 0,-44.02 9.45,-56.622 13.65,-18.378 46.2,-19.429 67.19,-18.898 43.52,0.84 85.15,10.168 91.73,70.348 l 13.88,0 -1.13,-86.328 -282,0 0,13.878 c 10.35,0 23.05,8.879 27.16,19.649 5.26,14.172 3.45,51.23 3.45,68.031 l 0,139.5"
         style="fill:#ffffff;fill-opacity:1;fill-rule:nonzero;stroke:none"
         id="path52"
         inkscape:connector-curvature="0" /><path
         d="m 2376.65,662.16 c 0,16.801 0,55.66 -5.25,69.828 -6.82,17.852 -30.15,17.852 -46.95,17.852 l 0,17.769 278.91,0 0,-81.07 -13.88,0 c -9.36,57.68 -44.83,59.711 -91.12,59.711 l -37.79,0 c -16.27,0 -13.66,1.57 -13.66,-21.539 l 0,-117.223 c 66.25,-2.898 76.87,26.66 80.18,66.371 l 15.67,0 c -0.52,-23.621 -1.04,-49.578 -2.1,-73.199 1.06,-21.519 1.58,-47.172 2.1,-68.699 l -15.67,0 c -7.02,52.629 -33.45,57.75 -80.18,57.75 l 0,-77.109 c 0,-15.75 0,-44.02 9.46,-56.622 13.65,-18.378 46.19,-19.429 67.19,-18.898 43.51,0.84 85.15,10.168 91.72,70.348 l 13.88,0 -1.13,-86.328 -281.99,0 0,13.878 c 10.35,0 23.04,8.879 27.16,19.649 5.25,14.172 3.45,51.23 3.45,68.031 l 0,139.5"
         style="fill:#ffffff;fill-opacity:1;fill-rule:nonzero;stroke:none"
         id="path54"
         inkscape:connector-curvature="0" /><path
         d="m 1244.45,995.121 c 0,-17.851 -2.1,-43.051 8.4,-58.281 12.07,-17.852 33.45,-18.149 53.4,-18.149 81.08,0 95.33,67.141 95.33,140.259 0,97.7 -28.85,173.55 -122.48,173.55 -6.3,0 -26.78,1.05 -31.5,-3.67 -3.15,-3.15 -3.15,-12.08 -3.15,-16.28 l 0,-217.429 z m -68.47,150.759 c 0,16.8 0,55.64 -4.72,69.82 -5.78,18.38 -27.83,17.85 -44.62,17.85 l 0,14.93 c 21.52,-0.52 51.29,-1.58 73.34,-2.1 28.35,0.52 63.89,1.58 92.24,2.1 110.77,2.1 191.17,-67.2 191.17,-181.14 0,-111.301 -69.38,-169.051 -177.52,-166.43 -30.97,0.531 -69.67,1.59 -100.64,2.102 -24.15,-0.512 -54.97,-1.571 -78.59,-2.102 l 0,13.879 c 16.79,0 38.84,0 44.62,17.852 4.72,14.179 4.72,53.031 4.72,69.829 l 0,143.41"
         style="fill:#ffffff;fill-opacity:1;fill-rule:nonzero;stroke:none"
         id="path56"
         inkscape:connector-curvature="0" /><path
         d="m 1515.41,1146.92 c 0,16.81 3.59,50.26 -1.66,64.43 -6.82,17.86 -31.94,23.25 -48.74,23.25 l 0,13.88 c 25.2,-0.52 57.6,-1.58 82.79,-2.1 26.77,0.52 56.62,1.58 82.87,2.1 l 0,-13.88 c -16.8,0 -38.32,-7.19 -45.14,-25.04 -5.26,-14.18 -1.66,-45.83 -1.66,-62.64 l 0,-144.45 c 0,-16.798 -1.8,-50.259 3.45,-64.439 6.83,-17.851 37.35,-23.242 54.14,-23.242 l 0,-13.879 c -24.66,0.531 -64.78,1.59 -89.99,2.102 -26.25,-0.512 -63.81,-1.571 -90.06,-2.102 l 0,13.879 c 16.8,0 43.73,3.59 50.54,21.449 5.26,14.184 3.46,49.434 3.46,66.232 l 0,144.45"
         style="fill:#ffffff;fill-opacity:1;fill-rule:nonzero;stroke:none"
         id="path58"
         inkscape:connector-curvature="0" /><path
         d="m 1917.26,1249.4 15.06,0 4.2,-99.83 -15.67,0 c -8.41,54.94 -49.31,92.03 -101.78,92.03 -98.13,0 -118.72,-91.39 -118.72,-173.48 0,-74.28 30.74,-156.608 121.57,-156.608 66.62,0 95.8,57.129 107.03,115.498 l 14.85,0 0,-118.569 -12.23,0 -12.6,28.579 c -28.33,-22.411 -50.49,-44.782 -114.21,-44.782 -113.91,0 -186.22,75.782 -186.22,175.882 0,122.4 80.43,190.95 190.94,190.95 43.05,0 63.16,-8.18 99.38,-30.75 l 8.4,21.08"
         style="fill:#ffffff;fill-opacity:1;fill-rule:nonzero;stroke:none"
         id="path60"
         inkscape:connector-curvature="0" /><path
         d="m 2150.46,1039.45 -54.15,139.06 -54.67,-139.06 108.82,0 z m -118.58,-31.72 c -7.88,-19.96 -19.8,-49.808 -19.8,-70.281 0,-19.211 25.4,-22.84 40.73,-24.379 l 0,-13.871 c -19.43,0.512 -41.93,1.571 -61.35,2.102 -18.37,-0.531 -41.62,-1.59 -60,-2.102 l 0,13.871 c 24.1,2.668 45.12,19.93 52.2,37.27 14.7,33.609 28.88,64.88 43.58,98.48 l 80.32,206.33 26.84,0 106.05,-264.9 c 6.3,-13.66 17.85,-45.68 27.3,-57.75 11.55,-15.23 27.29,-17.34 45.15,-19.43 l 0,-13.871 c -24.68,0.512 -55.27,1.571 -79.95,2.102 -25.2,-0.531 -61.72,-1.59 -86.91,-2.102 l 0,13.871 c 10.94,0.379 40.42,8.629 40.42,23.551 0,5.07 -8.28,31.66 -10.5,37.348 l -20.48,46.881 -118.87,0 -4.73,-13.12"
         style="fill:#ffffff;fill-opacity:1;fill-rule:nonzero;stroke:none"
         id="path62"
         inkscape:connector-curvature="0" /><path
         d="m 2349.86,1146.2 c 0,16.8 -1.79,53.85 -7.04,68.03 -6.82,17.85 -26.55,19.65 -43.35,19.65 l 0,13.88 c 25.2,-0.53 53.47,-1.58 78.67,-2.1 26.78,0.52 58.42,1.57 85.2,2.1 l 0,-13.88 c -16.81,0 -36.93,0.42 -43.75,-17.43 -5.25,-14.17 -3.06,-53.45 -3.06,-70.25 l 0,-148.212 c 0,-67.199 5.11,-78.218 71.78,-78.218 23.41,0 44.59,-2.668 65.55,9.519 21.98,12.793 35.67,41.699 39.52,65.633 l 13.12,0 -4.72,-94.723 c -8.93,0.52 -18.37,1.051 -27.3,2.09 -90.29,-1.57 -184.71,-1.57 -275.01,-2.09 l 0,13.871 c 16.8,0 40.13,5.391 46.95,23.25 5.25,14.168 3.44,47.629 3.44,64.42 l 0,144.46"
         style="fill:#ffffff;fill-opacity:1;fill-rule:nonzero;stroke:none"
         id="path64"
         inkscape:connector-curvature="0" /><path
         d="m 1081.36,664.559 c 0,16.8 -1.79,53.851 -7.04,68.023 -6.83,17.867 -26.56,19.656 -43.35,19.656 l 0,13.883 c 25.2,-0.543 53.47,-1.582 78.66,-2.109 26.78,0.527 58.43,1.566 85.2,2.109 l 0,-13.883 c -16.8,0 -36.92,0.422 -43.75,-17.429 -5.25,-14.18 -3.05,-53.45 -3.05,-70.25 l 0,-148.207 c 0,-67.192 5.1,-78.231 71.77,-78.231 23.41,0 44.59,-2.66 65.56,9.527 21.97,12.793 35.67,41.692 39.52,65.633 l 13.12,0 -4.72,-94.73 c -8.93,0.531 -18.38,1.058 -27.3,2.097 -90.3,-1.566 -184.72,-1.566 -275.01,-2.097 l 0,13.879 c 16.79,0 40.12,5.402 46.95,23.242 5.24,14.18 3.44,47.637 3.44,64.43 l 0,144.457"
         style="fill:#ffffff;fill-opacity:1;fill-rule:nonzero;stroke:none"
         id="path66"
         inkscape:connector-curvature="0" /><path
         d="m 1409.8,664.559 c 0,16.8 -1.8,53.851 -7.05,68.023 -6.82,17.867 -26.55,19.656 -43.35,19.656 l 0,13.883 c 25.2,-0.543 53.48,-1.582 78.68,-2.109 26.77,0.527 58.41,1.566 85.19,2.109 l 0,-13.883 c -16.8,0 -36.92,0.422 -43.75,-17.429 -5.25,-14.18 -3.06,-53.45 -3.06,-70.25 l 0,-148.207 c 0,-67.192 5.11,-78.231 71.78,-78.231 23.41,0 44.58,-2.66 65.55,9.527 21.98,12.793 35.68,41.692 39.52,65.633 l 13.13,0 -4.72,-94.73 c -8.94,0.531 -18.38,1.058 -27.31,2.097 -90.29,-1.566 -184.71,-1.566 -275.01,-2.097 l 0,13.879 c 16.8,0 40.13,5.402 46.95,23.242 5.25,14.18 3.45,47.637 3.45,64.43 l 0,144.457"
         style="fill:#ffffff;fill-opacity:1;fill-rule:nonzero;stroke:none"
         id="path68"
         inkscape:connector-curvature="0" /><path
         d="m 735.605,587.512 c 0,-76.18 29.938,-164.332 120.899,-164.332 85.113,0 107.406,97.691 107.406,165.91 0,73.75 -19.406,167.18 -110.555,167.18 -79.152,0 -117.75,-72.629 -117.75,-168.758 z m -80.015,0 c 0,116.148 93.961,186.527 199.863,186.527 102.356,0 192.067,-78.488 192.067,-182.848 0,-107.632 -89.918,-183.992 -195.961,-183.992 -104.871,0 -195.969,68.539 -195.969,180.313"
         style="fill:#ffffff;fill-opacity:1;fill-rule:nonzero;stroke:none"
         id="path70"
         inkscape:connector-curvature="0" /><path
         d="m 2287.09,666.621 -16.43,0 c -12.5,67.02 -52.12,94.117 -102.89,94.117 -93.21,0 -117.22,-92.988 -117.22,-173.859 0,-68.328 25.08,-155.93 108.89,-155.93 52.5,0 82.28,24.68 82.28,78.75 0,35.18 -13.12,42.012 -45.15,44.629 l 0,13.883 151.95,0 0,-13.883 c -28.36,0.531 -36.16,-13.637 -36.16,-39.887 l 0,-59.261 c -38.33,0 -46.87,-5.989 -79.42,-23.848 -26.77,-13.652 -52.5,-19.953 -82.42,-19.953 -106.96,0 -179.99,67.609 -179.99,176.562 0,112.52 77.61,192.079 187.34,192.079 38.85,0 74.1,-7.649 105.6,-31.282 l 11.02,21.832 14.78,0 -2.18,-103.949"
         style="fill:#ffffff;fill-opacity:1;fill-rule:nonzero;stroke:none"
         id="path72"
         inkscape:connector-curvature="0" /><path
         d="m 65.7031,147.898 c 0,-63.3785 24.4297,-133.0074 94.6799,-133.0074 72.293,0 89.574,76.3907 89.574,134.2814 0,62.066 -21.93,133.84 -92.125,133.84 -73.5039,0 -92.1289,-80.141 -92.1289,-135.114 z M 0,147.898 c 0,94.141 78.3594,148.391 159.531,148.391 81.153,0 157.93,-61.289 157.93,-145.418 C 317.461,57.9219 241.156,1.62109 157.832,1.62109 74.9805,1.62109 0,62.4883 0,147.898"
         style="fill:#ffffff;fill-opacity:1;fill-rule:nonzero;stroke:none"
         id="path74"
         inkscape:connector-curvature="0" /><path
         d="m 1704.61,147.898 c 0,-63.3785 24.42,-133.0074 94.68,-133.0074 72.29,0 89.57,76.3907 89.57,134.2814 0,62.066 -21.93,133.84 -92.12,133.84 -73.51,0 -92.13,-80.141 -92.13,-135.114 z m -65.7,0 c 0,94.141 78.36,148.391 159.53,148.391 81.15,0 157.93,-61.289 157.93,-145.418 0,-92.9491 -76.31,-149.24991 -159.63,-149.24991 -82.85,0 -157.83,60.86721 -157.83,146.27691"
         style="fill:#ffffff;fill-opacity:1;fill-rule:nonzero;stroke:none"
         id="path76"
         inkscape:connector-curvature="0" /><path
         d="m 531.023,222.219 -9.773,0 c -5.098,18.269 -9.348,36.133 -28.469,44.191 -18.265,8.078 -37.09,7.66 -57.484,7.66 -33.988,0 -32.715,2.969 -33.563,-23.8 l 0,-91.579 c 41.153,-1.812 56.774,8.071 65.661,47.809 l 13.367,0 c -0.426,-19.121 -0.852,-38.66 -1.699,-57.781 0.847,-17.418 1.273,-35.27 1.699,-52.6877 l -13.367,0 c -6.454,48.3597 -19.79,45.4567 -65.661,45.4567 l 0,-51.738 c 0,-13.168 -1.8,-39.2187 2.45,-50.6914 6.375,-17 27.195,-19 42.062,-19.8398 l 0,-11.57817 C 424.578,8.07031 398.887,8.91016 377.219,9.33984 355.547,8.91016 328.906,8.07031 306.387,7.64063 l 0,11.57817 c 13.597,0 32.816,1.7929 38.34,16.2421 4.25,11.4805 2.453,41.1211 2.453,54.7188 l 0,116.2183 c 0,13.614 1.797,43.243 -2.453,54.723 -5.524,14.449 -24.743,16.25 -38.34,16.25 l 0,11.559 c 25.918,-0.418 56.383,-1.27 81.449,-1.692 45.465,0.422 90.93,1.274 136.394,1.692 l 6.793,-66.711"
         style="fill:#ffffff;fill-opacity:1;fill-rule:nonzero;stroke:none"
         id="path78"
         inkscape:connector-curvature="0" /><path
         d="m 811.633,206.141 -30.75,-104.59 C 769.414,67.5508 757.516,33.9883 746.047,0 l -18.043,0 -74.356,226.789 c -3.398,9.793 -7.55,30.5 -13.921,37.731 -7.227,9.769 -16.473,11.992 -28.793,12.851 l 0,11.559 c 20.394,-0.418 40.785,-1.27 61.179,-1.692 20.821,0.422 45.664,1.274 66.485,1.692 l 0,-11.559 C 725,276.09 702.156,276.09 702.156,256.539 c 0,-9.777 11.571,-41.207 14.547,-51.84 l 39.305,-123.5584 63.871,207.7894 18.988,0 67.766,-200.2894 24.461,71.7504 c 5.527,18.691 22.519,71.929 22.519,88.507 0,26.34 -11.695,26.34 -32.937,28.473 l 0,11.559 c 15.293,-0.418 30.59,-1.27 45.887,-1.692 14.867,0.422 29.316,1.274 44.187,1.692 l 0,-11.559 c -31.441,0.84 -37.391,-32.301 -44.187,-56.09 L 900.055,0 877.988,0 811.633,206.141"
         style="fill:#ffffff;fill-opacity:1;fill-rule:nonzero;stroke:none"
         id="path80"
         inkscape:connector-curvature="0" /><path
         d="m 1047.91,206.398 c 0,13.614 0,45.051 -4.25,56.524 -5.53,14.449 -22.95,14.449 -36.54,14.449 l 0,11.559 c 20.39,-0.418 46.19,-1.27 66.58,-1.692 21.67,0.422 44.71,1.274 65.96,1.692 l 0,-11.559 c -13.6,0 -31.02,-1.801 -36.54,-16.25 -4.25,-11.48 -0.65,-41.109 -0.65,-54.723 l 0,-116.2183 c 0,-13.5977 -1.81,-41.4414 2.45,-52.918 5.52,-14.4414 24.74,-18.0429 38.33,-18.0429 l 0,-11.57817 c -19.96,0.42968 -46.18,1.26953 -66.58,1.69921 -21.24,-0.42968 -48.31,-1.26953 -69.55,-1.69921 l 0,11.57817 c 13.59,0 32.82,3.6015 38.34,18.0429 4.25,11.4766 2.45,39.3203 2.45,52.918 l 0,116.2183"
         style="fill:#ffffff;fill-opacity:1;fill-rule:nonzero;stroke:none"
         id="path82"
         inkscape:connector-curvature="0" /><path
         d="m 1154.65,93.4805 13.37,0 c 8.5,-42.9297 31.44,-77.2305 80.31,-77.2305 33.14,0 57.16,16.8789 57.16,51.3008 0,35.5972 -38.15,52.1872 -64.59,62.6872 -38.66,14.871 -81.67,38.883 -81.67,87.313 0,48.437 43.21,78.289 89.52,78.289 23.37,0 43.24,-6.281 62.36,-19.879 l 9.77,16.578 8.28,0 3.92,-78.91 -11.58,0 c -9.77,35.269 -27.94,67.141 -69.15,67.141 -27.19,0 -47.91,-15.629 -47.91,-43.239 0,-33.582 32.44,-38.57 58.3,-50.699 55.77,-26.16 91.68,-43.031 91.68,-101.4218 0,-52.2383 -42.16,-82.44145 -106.94,-82.44145 -28.9,0 -49.61,4.90234 -72.56,21.90235 l -8.4,-14.25 -11.87,0 0,82.8594"
         style="fill:#ffffff;fill-opacity:1;fill-rule:nonzero;stroke:none"
         id="path84"
         inkscape:connector-curvature="0" /><path
         d="m 2481.28,206.398 c 0,13.614 0,45.051 -4.25,56.524 -5.53,14.449 -22.94,14.449 -36.54,14.449 l 0,11.559 c 20.4,-0.418 46.19,-1.27 66.58,-1.692 21.67,0.422 44.72,1.274 65.96,1.692 l 0,-11.559 c -13.6,0 -31.01,-1.801 -36.54,-16.25 -4.25,-11.48 -0.65,-41.109 -0.65,-54.723 l 0,-116.2183 c 0,-13.5977 -1.8,-41.4414 2.45,-52.918 5.52,-14.4414 24.74,-18.0429 38.34,-18.0429 l 0,-11.57817 c -19.97,0.42968 -46.19,1.26953 -66.58,1.69921 -21.24,-0.42968 -48.31,-1.26953 -69.56,-1.69921 l 0,11.57817 c 13.6,0 32.82,3.6015 38.34,18.0429 4.25,11.4766 2.45,39.3203 2.45,52.918 l 0,116.2183"
         style="fill:#ffffff;fill-opacity:1;fill-rule:nonzero;stroke:none"
         id="path86"
         inkscape:connector-curvature="0" /><path
         d="m 2241.93,93.4805 13.37,0 c 8.5,-42.9297 31.44,-77.2305 80.31,-77.2305 33.13,0 57.15,16.8789 57.15,51.3008 0,35.5972 -38.15,52.1872 -64.58,62.6872 -38.66,14.871 -81.68,38.883 -81.68,87.313 0,48.437 43.22,78.289 89.54,78.289 23.35,0 43.23,-6.281 62.35,-19.879 l 9.76,16.578 8.29,0 3.91,-78.91 -11.57,0 c -9.77,35.269 -27.94,67.141 -69.15,67.141 -27.19,0 -47.91,-15.629 -47.91,-43.239 0,-33.582 32.44,-38.57 58.3,-50.699 55.76,-26.16 91.68,-43.031 91.68,-101.4218 0,-52.2383 -42.17,-82.44145 -106.94,-82.44145 -28.9,0 -49.61,4.90234 -72.56,21.90235 l -8.4,-14.25 -11.87,0 0,82.8594"
         style="fill:#ffffff;fill-opacity:1;fill-rule:nonzero;stroke:none"
         id="path88"
         inkscape:connector-curvature="0" /><path
         d="m 1603.82,289.461 9.97,0 3.4,-81.91 -9.77,0 c -17.66,45.621 -26.41,74.91 -87.86,74.91 -71.88,0 -90,-74.242 -90,-137.141 0,-54.9997 23.57,-127.1794 90.85,-127.1794 59.49,0 79.37,42.4883 92.11,93.4804 l 11.24,0 0,-94.8593 -9.12,0 -10.2,19.8789 c -28.46,-22.5195 -55.55,-33.67185 -92.1,-33.67185 -86.25,0 -148.48,55.66015 -148.48,142.35125 0,92.09 60.22,152.309 152.31,152.309 34.84,0 49.74,-6.27 79.05,-24.551 l 8.6,16.383"
         style="fill:#ffffff;fill-opacity:1;fill-rule:nonzero;stroke:none"
         id="path90"
         inkscape:connector-curvature="0" /><path
         d="m 1979.75,251.871 c -13.18,18.699 -21.58,25.07 -44.52,25.5 l 0,11.559 c 13.6,-0.418 30.37,-1.27 43.96,-1.692 11.04,0.422 26.12,1.274 38.96,1.692 l 172.96,-208.0316 0,105.5316 c 0,18.269 0,48.019 -3.82,65.441 -5.1,23.789 -12.97,22.09 -34.22,25.5 l 0,11.559 c 15.72,-0.418 31.01,-1.27 46.74,-1.692 14.87,0.422 29.31,1.274 45.03,1.692 l 0,-11.559 c -15.72,-1.711 -26.75,-0.43 -32.28,-18.699 -4.25,-13.602 -5.1,-57.371 -5.1,-74.371 l 0,-181.33225 -19.94,0 c -9.36,11.47265 -22.3,26.97265 -31.64,38.86325 l -159.79,192.406 0,-135.5661 c 0,-15.7227 -0.71,-43.4727 4.57,-58.4336 6.03,-17.0469 23.05,-19.3281 38.77,-21.0195 l 0,-11.57817 c -16.15,0.42968 -34.52,1.26953 -50.66,1.69921 -15.72,-0.42968 -33.24,-1.26953 -48.97,-1.69921 l 0,11.57817 c 16.58,1.6914 35.83,5.832 38.34,24.4101 2.24,16.5703 1.61,38.4805 1.61,55.043 l 0,153.1991"
         style="fill:#ffffff;fill-opacity:1;fill-rule:nonzero;stroke:none"
         id="path92"
         inkscape:connector-curvature="0" /><path
         d="m 2629.04,251.871 c -13.16,18.699 -21.56,25.07 -44.51,25.5 l 0,11.559 c 13.6,-0.418 30.36,-1.27 43.96,-1.692 11.05,0.422 26.12,1.274 38.96,1.692 l 172.96,-208.0316 0,105.5316 c 0,18.269 0,48.019 -3.83,65.441 -5.1,23.789 -12.97,22.09 -34.22,25.5 l 0,11.559 c 15.73,-0.418 31.03,-1.27 46.74,-1.692 14.87,0.422 29.32,1.274 45.05,1.692 l 0,-11.559 c -15.73,-1.711 -26.77,-0.43 -32.29,-18.699 -4.25,-13.602 -5.1,-57.371 -5.1,-74.371 l 0,-181.33225 -19.94,0 c -9.36,11.47265 -22.3,26.97265 -31.64,38.86325 l -159.79,192.406 0,-135.5661 c 0,-15.7227 -0.71,-43.4727 4.57,-58.4336 6.03,-17.0469 23.05,-19.3281 38.77,-21.0195 l 0,-11.57817 c -16.15,0.42968 -34.51,1.26953 -50.66,1.69921 -15.73,-0.42968 -33.25,-1.26953 -48.97,-1.69921 l 0,11.57817 c 16.57,1.6914 35.84,5.832 38.34,24.4101 2.24,16.5703 1.6,38.4805 1.6,55.043 l 0,153.1991"
         style="fill:#ffffff;fill-opacity:1;fill-rule:nonzero;stroke:none"
         id="path94"
         inkscape:connector-curvature="0" /><path
         d="m 754.824,982.879 c 0,-45.758 -3.785,-62.777 52.879,-67.5 l 0,-17.969 c -32.5,0.621 -63.125,1.871 -93.75,2.5 -31.25,-0.629 -61.324,-1.879 -92.574,-2.5 l 0,17.969 c 48.332,4.031 54.68,17.43 54.68,67.5 l 0,245.511 -1.25,0 -67.653,-154.59 c -26.25,-60 -50.078,-116.402 -76.328,-176.39 l -15.242,0 -144.68,329.18 -1.25,0 0,-234.34 c 0,-45.25 9.11,-74.539 56.403,-76.871 l 0,-17.969 c -23.125,0.621 -46.25,1.871 -69.375,2.5 -21.875,-0.629 -43.75,-1.879 -65.625,-2.5 l 0,17.969 c 47.5,0 56.25,28.75 56.25,56.871 l 0,259.05 c 0,16.25 -2.5,32.5 -5.625,40.63 -8.125,21.25 -37.348,21.25 -57.348,21.25 l 0,17.97 c 21.25,-1.25 50.867,-1.87 72.117,-2.5 19.375,0.63 43.524,1.25 62.899,2.5 l 130.304,-303.81 130.153,303.81 c 19.375,-1.25 46.57,-1.87 65.945,-2.5 20,0.63 47.195,1.25 69.07,2.5 l 0,-16.79 c -20,0 -44.375,-2.43 -53.75,-23.06 -6.25,-13.75 -6.25,-44.44 -6.25,-67.57 l 0,-220.851"
         style="fill:#ffffff;fill-opacity:1;fill-rule:nonzero;stroke:none"
         id="path96"
         inkscape:connector-curvature="0" /><path
         d="m 608.262,834.199 16.566,0 5,-124.937 -16.172,0 c -12.578,78.129 -68.828,112.5 -130.078,112.726 -118.117,0.442 -136.625,-135.75 -136.625,-206.156 0,-91.473 37.652,-191.41 143.277,-191.41 83.227,0 114.911,68.047 132.723,139.297 l 16.652,0 0,-142.27 -13.527,0 -15,31.883 c -37.66,-29.801 -89.699,-52.293 -136.32,-52.293 -121.047,0 -223.922,68.121 -223.922,214.793 0,141.867 97.539,227.738 227.742,227.738 46.902,0 82.574,-15.621 119.684,-38.75 l 10,29.379"
         style="fill:#ffffff;fill-opacity:1;fill-rule:nonzero;stroke:none"
         id="path98"
         inkscape:connector-curvature="0" /></g></g></svg>