<?xml version="1.0" encoding="UTF-8" standalone="no"?>
<!-- Generator: Adobe Illustrator 20.0.0, SVG Export Plug-In . SVG Version: 6.00 Build 0)  -->

<svg
   xmlns:dc="http://purl.org/dc/elements/1.1/"
   xmlns:cc="http://creativecommons.org/ns#"
   xmlns:rdf="http://www.w3.org/1999/02/22-rdf-syntax-ns#"
   xmlns:svg="http://www.w3.org/2000/svg"
   xmlns="http://www.w3.org/2000/svg"
   xmlns:sodipodi="http://sodipodi.sourceforge.net/DTD/sodipodi-0.dtd"
   xmlns:inkscape="http://www.inkscape.org/namespaces/inkscape"
   version="1.1"
   id="Layer_1"
   x="0px"
   y="0px"
   viewBox="0 0 321.29999 212.10001"
   xml:space="preserve"
   inkscape:version="0.91 r13725"
   sodipodi:docname="visit-milwaukee.svg"
   width="321.29999"
   height="212.10001"><metadata
     id="metadata23"><rdf:RDF><cc:Work
         rdf:about=""><dc:format>image/svg+xml</dc:format><dc:type
           rdf:resource="http://purl.org/dc/dcmitype/StillImage" /><dc:title></dc:title></cc:Work></rdf:RDF></metadata><defs
     id="defs21" /><sodipodi:namedview
     pagecolor="#ffffff"
     bordercolor="#666666"
     borderopacity="1"
     objecttolerance="10"
     gridtolerance="10"
     guidetolerance="10"
     inkscape:pageopacity="0"
     inkscape:pageshadow="2"
     inkscape:window-width="1920"
     inkscape:window-height="1016"
     id="namedview19"
     showgrid="false"
     fit-margin-top="0"
     fit-margin-left="0"
     fit-margin-right="0"
     fit-margin-bottom="0"
     inkscape:zoom="0.2979798"
     inkscape:cx="178.11186"
     inkscape:cy="108.8"
     inkscape:window-x="0"
     inkscape:window-y="27"
     inkscape:window-maximized="1"
     inkscape:current-layer="Layer_1" /><style
     type="text/css"
     id="style3">
	.st0{fill:#0583A9;}
</style><path
     class="st0"
     d="m 53,72.5 -0.1,0 0.1,0 0,0 z m 268.2,7.4 -0.2,0 -91.3,18.4 -0.7,-1 -1.7,-2.4 -1.3,-1.9 93.1,-15.3 0.7,-0.1 -1,-1.5 -0.3,0 -94.7,13.7 -0.6,-0.8 -2.6,-3.7 -0.3,-0.4 -0.3,-0.5 96.7,-10.3 0.7,-0.3 -1.1,-1.1 -0.2,0 -98,8.8 -3.7,-5.2 98.5,-5 c 0,0 0,-0.2 0,-0.4 l 0,-0.1 c 0,0 0,0 0,0 0,-0.2 0,-0.4 0,-0.4 l -0.1,0 c 0,0 0,-0.1 0,-0.1 l -100.1,3.5 -2.5,-3.7 77.4,-0.9 0,-0.4 0,-0.4 -3.3,0 -75.9,-1 -2.1,-3.1 69.9,2.3 0,-0.4 0.3,0 -0.3,0 0,-0.4 -71.7,-4.1 0,0 -1.7,-2.5 0,0 59.4,4.3 0,-0.5 0,-0.4 -61.7,-6.8 0,0 -0.3,-0.5 -1.7,-2.5 -0.2,-0.3 41.8,6 0.1,-0.5 0.3,0 -0.3,-0.1 0.1,-0.4 -44.4,-8.7 -6.8,-7.6 -4.7,-1.4 -33.9,-39.8 24,41.7 5.3,1.7 4.4,4 -1.2,0.9 -49.1,-2.5 c 14.2,1.6 43.5,5.8 52.6,7.1 l 0.8,1.1 -48,-5.3 c 17.1,2.7 43.4,8.5 51.6,10.1 l 1.2,1.6 -43.8,-7.1 c 16.4,3.4 39.2,9.3 47.1,11.5 l 1.5,2 -38.4,-8.3 c 13.5,3.6 34,10.5 41.9,13 l 1.4,1.9 -29.6,-8.1 c 16.7,7.9 28.1,11.5 32.9,12.9 l 1.5,2.2 -15.5,-4.4 19.6,10.3 8.1,11.8 -0.9,0 -2.8,-2.8 -2.5,0.5 -3.5,-3.7 -2.2,0.5 -3.6,-5 -2.5,1.7 -3.9,-4.9 -1.1,0.6 c -6.1,-4.3 -5,-3.6 -17.6,-11.2 l -1.9,-0.8 -1.7,0.4 -5,-3.6 -1.2,0 -5,-2.6 -1.8,0.2 -5.4,-3.4 -1.8,0.1 -4.4,-3.3 -0.7,-0.3 -2.2,0.8 -4.7,-3.2 -2.8,0.5 -5.2,-3.3 -0.8,0.8 -6.1,-2.9 0,0 0,0 C 127.2,53.1 127,53 126.7,52.9 l -2.1,-0.4 -0.9,0.4 -2.2,-0.4 -4.2,-1.9 -1.2,0.2 -5.5,-1.6 -1.8,0.6 -6.1,-2.3 -1.8,0.4 -5,-2.4 -0.7,-0.1 -2,1.3 -7.2,-2.7 -0.3,1.2 -6.3,-1.8 -0.6,1 -6.6,-1.7 -1.8,0.4 -6.1,-1.1 -2.7,0.2 -6.4,-1.8 -2.6,0.8 -9,-1.5 -1.2,1.2 -5.7,-1.1 -1.8,-1.6 -1.3,1.3 -6.5,-1.2 -1.4,1.3 0,1 -3.1,-0.1 0,4.6 59.5,3.2 0,0 c 0,0 5.8,0.3 16.2,2.2 l 7.9,1.6 c 16.4,3.7 40.2,10.8 68,24.6 l 3.8,4.1 -78.5,95.1 11,0 74.8,-89.1 c 1.1,1.1 2.4,2.4 3.8,3.8 l -77.4,85.4 11.3,0 72.2,-79.3 c 1.3,1.4 2.7,2.8 4.2,4.2 l -75,75.6 12.9,0 67.9,-68.6 c 1.4,1.4 2.8,2.9 4.1,4.3 l -69.5,64.2 14,0 62,-57.3 c 1.4,1.5 2.8,3 4.1,4.5 l -63,52.9 15.7,0 53.4,-45.9 c 1.3,1.5 2.5,2.9 3.7,4.4 l -52.3,41.5 14.9,0 43.9,-33.7 c 1.2,1.6 2.3,3.1 3.3,4.5 l -40.9,29.1 81.1,0 -1.1,-1.7 26.7,-10.2 0.9,-3 -0.8,0.3 -28.2,10.9 -3.6,-5.5 37.9,-14.5 0.9,-3 -0.8,0.3 -39.3,15.2 -3.3,-5.1 46.5,-17.8 0.9,-3 -0.8,0.3 -45.9,17.7 0.1,-1.8 0.2,-2 0.2,-2.6 47.5,-17.2 0.3,-0.3 0.7,-2.7 -0.7,0.3 -47.5,17 0.3,-3.4 0.2,-2 0.1,-1.5 48.7,-16.4 0.5,-2.2 -0.7,0.2 -48.3,15.5 0.1,-1.4 -1.4,-0.6 -1.4,0.8 -0.1,2.5 -1.8,0.7 0,-3.3 0,0 0,-3.3 54.6,-16.9 0,-2 -55.4,16.4 -0.8,-1 -0.5,0.2 -0.8,0.8 0,1.1 -1.5,0.4 0,-1.4 -0.1,-3.6 59,-17.6 0,-2 -64.4,18.3 -0.4,-2.6 -1.3,-0.8 -1.9,1.6 0.4,3.4 -0.7,0.2 -1.6,-6.1 70,-19.4 0,-2.1 -70.7,18.8 -0.6,-2.1 -1.1,-0.7 -0.8,1.1 0.2,2.2 -1.5,0.4 -1.1,-3.8 -0.3,-1 0,-0.2 75.8,-19.4 0,-2.5 -78,19.1 -3.2,0.8 -3.2,-4.4 84.3,-20.8 0,-1.8 -86.7,19.4 -0.1,-0.2 -1.7,-2.4 -1.3,-1.9 89.8,-19.3 0,-1.9 z m -54.7,62.6 1.5,-0.6 -0.6,6.6 -1.1,0.4 0.2,-6.4 z m -2.8,7.2 -1.2,0.5 -0.1,-6.8 1.3,-0.4 0,6.7 z m 0,-15.9 0,7 -1.3,0.4 0,-5.4 0,0 0,-1.7 1.3,-0.3 z m -4.7,-6 0,5.4 -1.1,0.3 -0.8,-5.2 1.9,-0.5 z m -10.5,-5.7 0.8,3.5 -0.8,0.2 -1,-3.5 1,-0.2 z"
     id="path5"
     inkscape:connector-curvature="0"
     style="fill:#0583a9" /><path
     class="st0"
     d="m 21.3,196.6 -5.9,-23.1 -15.4,0 0,37.9 9.5,0 0,-28.9 7.4,28.9 8.6,0 7.4,-28.9 0,28.9 9.5,0 0,-37.9 -15.3,0 -5.8,23.1 z m 25.5,14.9 10.5,0 0,-27.5 -10.5,0 0,27.5 z m 0,-30.8 10.5,0 0,-7.1 -10.5,0 0,7.1 z m 14.5,30.8 10.5,0 0,-37.9 -10.5,0 0,37.9 z m 51,-27.5 -4.5,17.2 -5.8,-17.2 -9.4,0 -5.6,17.2 -4.4,-17.2 -10.1,0 10.1,27.5 9.4,0 5.4,-16.5 5.5,16.5 9.3,0 10.1,-27.5 -10,0 z m 38.5,21.6 0,-12.1 c 0,-1.3 -0.3,-2.6 -0.8,-4.1 -0.5,-1.4 -1.2,-2.5 -2.1,-3.3 -1.3,-1.1 -2.9,-1.9 -4.8,-2.2 -1.9,-0.3 -4.4,-0.5 -7.6,-0.5 -2,0 -3.8,0.1 -5.5,0.4 -1.7,0.3 -3,0.7 -4,1.2 -1.3,0.8 -2.4,1.6 -3.1,2.6 -0.7,1 -1.3,2.4 -1.6,4.2 l 10,1.1 c 0.4,-1.2 1,-2 1.6,-2.5 0.9,-0.6 2.2,-0.9 3.9,-0.9 1.4,0 2.3,0.3 2.9,0.8 0.5,0.5 0.8,1.4 0.8,2.7 -1.3,0.5 -2.5,0.9 -3.7,1.3 -1.2,0.3 -3.7,0.9 -7.7,1.7 -3.3,0.7 -5.6,1.6 -6.8,3 -1.2,1.3 -1.8,3.1 -1.8,5.1 0,2.2 0.9,4.1 2.5,5.6 1.7,1.5 4.2,2.3 7.5,2.3 2.5,0 4.6,-0.4 6.5,-1.1 1.4,-0.6 2.7,-1.5 4.1,-2.9 0.1,0.8 0.2,1.4 0.4,1.8 0.1,0.4 0.4,0.9 0.8,1.6 l 9.8,0 c -0.5,-1.1 -0.9,-2.1 -1.1,-2.8 -0.1,-0.7 -0.2,-1.7 -0.2,-3 z m -10.2,-5.5 c 0,1.3 -0.2,2.4 -0.6,3.2 -0.4,0.8 -1.1,1.5 -2.2,2.1 -1,0.6 -2.1,0.8 -3.3,0.8 -1.1,0 -2,-0.3 -2.6,-0.8 -0.6,-0.5 -0.9,-1.2 -0.9,-2 0,-0.7 0.3,-1.4 0.9,-1.9 0.6,-0.5 1.9,-1.1 4.1,-1.7 1.6,-0.4 3.1,-0.8 4.6,-1.4 l 0,1.7 z m 31.9,-2.9 c 0,2.5 -0.4,4.2 -1.2,5.2 -0.8,1 -1.8,1.5 -3.1,1.5 -1.2,0 -2.1,-0.4 -2.7,-1.1 -0.6,-0.7 -0.9,-1.9 -0.9,-3.7 l 0,-15.1 -10.5,0 0,17.5 c 0,3.6 0.8,6.3 2.5,8 1.6,1.7 3.9,2.6 6.8,2.6 2.2,0 4,-0.4 5.5,-1.2 1.5,-0.8 2.9,-2.1 4.4,-3.9 l 0,4.5 9.8,0 0,-27.5 -10.5,0 0,13.2 z m 67.8,-12 c -2.3,-1.2 -5.4,-1.8 -9.3,-1.8 -4.8,0 -8.6,1.3 -11.4,4 -2.7,2.7 -4.1,6.1 -4.1,10.4 0,3 0.7,5.6 2,7.9 1.4,2.2 3.1,3.9 5.2,4.9 2.1,1 4.9,1.5 8.6,1.5 4.2,0 7.4,-0.6 9.6,-1.8 2.2,-1.2 4.1,-3.2 5.7,-5.9 l -10.3,-1 c -0.7,0.8 -1.3,1.4 -1.8,1.8 -0.9,0.5 -1.9,0.8 -2.9,0.8 -1.6,0 -3,-0.6 -4,-1.8 -0.7,-0.8 -1.2,-2.1 -1.4,-3.8 l 21,0 0,-1.2 c 0,-3.6 -0.6,-6.5 -1.8,-8.8 -1.1,-2.3 -2.9,-4 -5.1,-5.2 z m -14.1,10 c 0.2,-1.6 0.6,-2.8 1.2,-3.6 1,-1.3 2.3,-2 4,-2 1.4,0 2.6,0.4 3.5,1.3 0.9,0.9 1.4,2.3 1.6,4.3 l -10.3,0 z m 46.3,-10 c -2.3,-1.2 -5.4,-1.8 -9.3,-1.8 -4.8,0 -8.6,1.3 -11.3,4 -2.8,2.7 -4.1,6.1 -4.1,10.4 0,3 0.7,5.6 2.1,7.9 1.4,2.2 3.1,3.9 5.2,4.9 2.1,1 4.9,1.5 8.6,1.5 4.2,0 7.4,-0.6 9.6,-1.8 2.2,-1.2 4.1,-3.2 5.7,-5.9 l -10.3,-1 c -0.6,0.8 -1.3,1.4 -1.8,1.8 -0.9,0.5 -1.9,0.8 -2.9,0.8 -1.6,0 -3,-0.6 -4,-1.8 -0.7,-0.8 -1.2,-2.1 -1.4,-3.8 l 21,0 0,-1.2 c 0,-3.6 -0.6,-6.5 -1.8,-8.8 -1.3,-2.3 -3,-4 -5.3,-5.2 z m -14,10 c 0.2,-1.6 0.6,-2.8 1.2,-3.6 1,-1.3 2.3,-2 4,-2 1.4,0 2.6,0.4 3.5,1.3 0.9,0.9 1.4,2.3 1.6,4.3 l -10.3,0 z m -40.6,-11.2 -0.8,0 -12.1,0 -7.8,9 0,-9 -10.8,0 0,27.5 10.7,0 0,-7.2 3.9,-3.8 5.6,11 11.8,0 -10.4,-17.9 9.9,-9.6 z"
     id="path7"
     inkscape:connector-curvature="0"
     style="fill:#0583a9" /><polygon
     class="st0"
     points="148.8,454 143,435.5 134.7,435.5 144.4,461.2 153,461.2 162.5,435.5 154.5,435.5 "
     id="polygon9"
     style="fill:#0583a9"
     transform="translate(-134.6,-292.7)" /><rect
     x="28.9"
     y="142.8"
     class="st0"
     width="8"
     height="25.700001"
     id="rect11"
     style="fill:#0583a9" /><path
     class="st0"
     d="m 62.6,160.1 c 0,-1.4 -0.4,-2.7 -1,-3.8 -0.7,-1.1 -1.8,-2.1 -3.3,-2.8 -1.5,-0.8 -4,-1.5 -7.5,-2.3 -1.4,-0.3 -2.3,-0.6 -2.7,-0.9 -0.4,-0.3 -0.6,-0.7 -0.6,-1.1 0,-0.6 0.2,-1 0.7,-1.4 0.5,-0.4 1.2,-0.6 2.1,-0.6 1.1,0 2,0.3 2.6,0.8 0.6,0.5 1.1,1.3 1.3,2.5 l 7.5,-0.4 c -0.3,-2.7 -1.4,-4.6 -3.1,-5.8 -1.7,-1.2 -4.2,-1.8 -7.5,-1.8 -2.7,0 -4.8,0.3 -6.3,1 -1.5,0.7 -2.7,1.6 -3.5,2.8 -0.8,1.2 -1.2,2.4 -1.2,3.7 0,2 0.8,3.7 2.2,5 1.5,1.3 4,2.3 7.5,3.1 2.1,0.5 3.5,1 4.1,1.5 0.6,0.5 0.9,1.1 0.9,1.8 0,0.7 -0.3,1.3 -0.9,1.8 -0.6,0.5 -1.5,0.8 -2.6,0.8 -1.5,0 -2.7,-0.5 -3.5,-1.6 -0.5,-0.6 -0.8,-1.6 -1,-2.8 l -7.5,0.5 c 0.2,2.6 1.2,4.7 2.9,6.4 1.7,1.7 4.7,2.5 9.1,2.5 2.5,0 4.6,-0.4 6.2,-1.1 1.6,-0.7 2.9,-1.8 3.8,-3.2 0.8,-1.4 1.3,-2.9 1.3,-4.6 z"
     id="path13"
     inkscape:connector-curvature="0"
     style="fill:#0583a9" /><rect
     x="64.900002"
     y="142.8"
     class="st0"
     width="8"
     height="25.700001"
     id="rect15"
     style="fill:#0583a9" /><polygon
     class="st0"
     points="233.5,435.5 209.4,435.5 209.4,441.8 217.5,441.8 217.5,461.2 225.4,461.2 225.4,441.8 233.5,441.8 "
     id="polygon17"
     style="fill:#0583a9"
     transform="translate(-134.6,-292.7)" /></svg>